<mxfile host="app.diagrams.net" modified="2024-02-20T07:19:33.757Z" agent="Mozilla/5.0 (Windows NT 10.0; Win64; x64) AppleWebKit/537.36 (KHTML, like Gecko) Chrome/121.0.0.0 Safari/537.36 Edg/121.0.0.0" version="23.1.5" etag="W3E_PI8ixHb5ZILhCd7u" type="github">
  <diagram name="Страница — 1" id="uWzuqb4bVQumADpEoXhK">
    <mxGraphModel>
      <root>
        <mxCell id="0" />
        <mxCell id="1" parent="0" />
      </root>
    </mxGraphModel>
  </diagram>
</mxfile>
